HIERARCHY
ROOT Hips
{
	OFFSET -0.001795 -0.223333 0.028219
	CHANNELS 6 Xposition Yposition Zposition Zrotation Yrotation Xrotation 
	JOINT LeftUpLeg
	{
		OFFSET 0.069520 -0.091406 -0.006815
		CHANNELS 3 Zrotation Yrotation Xrotation
		JOINT LeftLeg
		{
			OFFSET 0.034277 -0.375199 -0.004496
			CHANNELS 3 Zrotation Yrotation Xrotation
			JOINT LeftFoot
			{
				OFFSET -0.013596 -0.397961 -0.043693
				CHANNELS 3 Zrotation Yrotation Xrotation
				JOINT LeftToe
				{
					OFFSET 0.026358 -0.055791 0.119288
					CHANNELS 3 Zrotation Yrotation Xrotation
					End Site
					{
						OFFSET 0.000000 0.000000 0.000000
					}
				}
			}
		}
	}
	JOINT RightUpLeg
	{
		OFFSET -0.067670 -0.090522 -0.004320
		CHANNELS 3 Zrotation Yrotation Xrotation
		JOINT RightLeg
		{
			OFFSET -0.038290 -0.382569 -0.008850
			CHANNELS 3 Zrotation Yrotation Xrotation
			JOINT RightFoot
			{
				OFFSET 0.015774 -0.398415 -0.042312
				CHANNELS 3 Zrotation Yrotation Xrotation
				JOINT RightToe
				{
					OFFSET -0.025372 -0.048144 0.123348
					CHANNELS 3 Zrotation Yrotation Xrotation
					End Site
					{
						OFFSET 0.000000 0.000000 0.000000
					}
				}
			}
		}
	}
	JOINT Spine
	{
		OFFSET -0.002533 0.108963 -0.026696
		CHANNELS 3 Zrotation Yrotation Xrotation
		JOINT Spine1
		{
			OFFSET 0.005487 0.135180 0.001092
			CHANNELS 3 Zrotation Yrotation Xrotation
			JOINT Spine2
			{
				OFFSET 0.001457 0.052922 0.025425
				CHANNELS 3 Zrotation Yrotation Xrotation
				JOINT Neck
				{
					OFFSET -0.002778 0.213870 -0.042857
					CHANNELS 3 Zrotation Yrotation Xrotation
					JOINT Head
					{
						OFFSET 0.005152 0.064970 0.051349
						CHANNELS 3 Zrotation Yrotation Xrotation
						End Site
						{
							OFFSET 0.000000 0.000000 0.000000
						}
					}
				}
				JOINT LeftShoulder
				{
					OFFSET 0.078845 0.121749 -0.034090
					CHANNELS 3 Zrotation Yrotation Xrotation
					JOINT LeftArm
					{
						OFFSET 0.090977 0.030469 -0.008868
						CHANNELS 3 Zrotation Yrotation Xrotation
						JOINT LeftForeArm
						{
							OFFSET 0.259612 -0.012772 -0.027456
							CHANNELS 3 Zrotation Yrotation Xrotation
							JOINT LeftHand
							{
								OFFSET 0.249234 0.008986 -0.001171
								CHANNELS 3 Zrotation Yrotation Xrotation
								End Site
								{
									OFFSET 0.000000 0.000000 0.000000
								}
							}
						}
					}
				}
				JOINT RightShoulder
				{
					OFFSET -0.081759 0.118833 -0.038615
					CHANNELS 3 Zrotation Yrotation Xrotation
					JOINT RightArm
					{
						OFFSET -0.096012 0.032551 -0.009143
						CHANNELS 3 Zrotation Yrotation Xrotation
						JOINT RightForeArm
						{
							OFFSET -0.253742 -0.013329 -0.021401
							CHANNELS 3 Zrotation Yrotation Xrotation
							JOINT RightHand
							{
								OFFSET -0.255298 0.007772 -0.005559
								CHANNELS 3 Zrotation Yrotation Xrotation
								End Site
								{
									OFFSET 0.000000 0.000000 0.000000
								}
							}
						}
					}
				}
			}
		}
	}
}
MOTION
Frames: 12
Frame Time: 0.050000
0.000000 0.953202 0.000000 -0.180918 -6.293311 3.117158 5.002690 0.021291 0.965851 -3.016302 0.398743 -3.908883 7.100461 15.604306 14.496475 0.000000 0.000000 0.000000 -5.531512 0.286114 -0.689778 3.948048 -0.364362 -2.758382 -4.494344 -13.860704 11.313375 0.000000 0.000000 0.000000 7.199922 -0.533767 4.104710 -6.464629 2.110117 -22.103728 -1.689636 8.706540 28.137003 10.151003 -3.002030 -29.254997 0.000000 0.000000 0.000000 -18.572836 -10.245712 3.385321 -52.360290 -8.257755 -4.919344 -4.838177 -26.354240 2.240345 0.000000 0.000000 0.000000 25.024676 -2.065992 -1.263867 58.110436 9.868856 -3.754958 6.694153 27.643709 3.204469 0.000000 0.000000 0.000000 
0.000100 0.951558 -0.000008 -0.221234 -6.131752 3.232329 5.236889 0.043349 1.508425 -2.984065 0.406836 -5.025529 7.207939 15.782776 14.400142 0.000000 0.000000 0.000000 -5.297673 0.287561 -0.934815 3.491073 -0.334241 -2.426699 -4.524718 -13.951066 11.545420 0.000000 0.000000 0.000000 7.514010 -0.492381 3.528551 -6.795025 2.217795 -21.432625 -2.281896 8.770316 27.699680 10.245364 -2.803093 -30.522287 0.000000 0.000000 0.000000 -18.021463 -9.581864 2.984269 -52.496357 -8.434223 -4.831492 -4.461703 -27.056974 2.205977 0.000000 0.000000 0.000000 25.123634 -2.357698 -1.413092 59.326848 9.550010 -3.874702 6.653284 28.423844 3.336913 0.000000 0.000000 0.000000 
0.000160 0.951542 -0.000154 -0.120609 -5.893800 3.119324 5.427903 0.004231 0.804172 -3.331783 0.423131 -3.718242 7.325544 15.990160 14.696251 0.000000 0.000000 0.000000 -5.449738 0.278870 -0.714215 3.357591 -0.331587 -2.917619 -4.351597 -13.806814 12.514964 0.000000 0.000000 0.000000 7.590873 -0.450604 3.119774 -7.057262 2.293434 -21.497842 -2.068458 8.089060 28.381455 9.994892 -2.909609 -29.781794 0.000000 0.000000 0.000000 -18.546986 -10.013468 3.380125 -51.939755 -8.975876 -4.651630 -4.349295 -25.900008 2.106188 0.000000 0.000000 0.000000 25.210429 -1.889317 -1.275127 58.773231 9.711769 -3.859611 7.091708 27.898512 3.328635 0.000000 0.000000 0.000000 
0.000099 0.951546 -0.000093 0.031171 -6.012142 2.988903 5.474895 0.026339 1.205551 -3.516162 0.443394 -4.155210 7.455655 16.197292 15.207063 0.000000 0.000000 0.000000 -5.855196 0.288530 -0.539242 3.782461 -0.357962 -3.089544 -4.883198 -14.836681 13.063035 0.000000 0.000000 0.000000 7.717705 -0.430038 2.916330 -7.237644 2.347388 -21.382287 -2.294507 8.242518 28.596148 10.264715 -3.084069 -29.590958 0.000000 0.000000 0.000000 -18.633224 -10.257316 3.494241 -51.893199 -8.995298 -4.648795 -4.049450 -27.056975 2.138164 0.000000 0.000000 0.000000 25.563966 -2.045393 -1.349545 58.461999 10.046384 -3.739763 7.539122 28.136081 3.484937 0.000000 0.000000 0.000000 
0.000030 0.951993 -0.000089 0.061079 -5.889402 2.634585 5.474704 0.035297 1.320791 -3.298916 0.421961 -3.899287 6.908895 15.392041 15.269379 0.000000 0.000000 0.000000 -5.780856 0.263273 -0.192798 3.574961 -0.347047 -3.103295 -4.703763 -14.526479 13.133346 0.000000 0.000000 0.000000 7.388399 -0.427392 3.083629 -6.613405 2.198943 -20.848623 -2.567529 8.081803 28.077162 10.077971 -3.106348 -28.793574 0.000000 0.000000 0.000000 -18.789140 -9.873873 3.275946 -51.939071 -9.288310 -4.475590 -4.503473 -27.414477 2.275890 0.000000 0.000000 0.000000 25.590356 -1.957959 -1.335664 58.174329 9.957572 -3.723139 7.596786 28.190034 3.487264 0.000000 0.000000 0.000000 
-0.000002 0.952205 -0.000088 0.118381 -5.916956 2.628079 5.518414 0.038451 1.393011 -3.399382 0.431193 -3.909688 6.705605 15.071356 15.028946 0.000000 0.000000 0.000000 -5.912718 0.265407 -0.090588 3.626196 -0.350187 -3.148092 -4.552503 -14.248367 13.038991 0.000000 0.000000 0.000000 7.270261 -0.406357 2.919829 -6.594217 2.188386 -21.009076 -2.535040 8.000952 28.294163 10.092555 -3.117827 -28.942052 0.000000 0.000000 0.000000 -18.699925 -9.833208 3.292890 -51.716636 -9.430973 -4.432600 -5.040635 -28.156920 2.482902 0.000000 0.000000 0.000000 25.568987 -1.781381 -1.250177 57.925921 10.059228 -3.694244 7.822862 28.060470 3.511084 0.000000 0.000000 0.000000 
0.000015 0.952020 -0.000190 0.102835 -5.836090 2.363902 5.545086 0.051340 1.609691 -3.333362 0.425596 -3.992684 6.620960 14.979053 15.462294 0.000000 0.000000 0.000000 -5.783110 0.247322 0.072499 3.402520 -0.336757 -3.031291 -4.415327 -13.986294 12.942136 0.000000 0.000000 0.000000 7.238583 -0.404281 2.970429 -6.465848 2.162907 -20.796191 -2.580031 7.825407 28.102361 10.156101 -3.180049 -28.882442 0.000000 0.000000 0.000000 -18.889891 -9.704633 3.240903 -51.624145 -9.415056 -4.415906 -5.445408 -28.335673 2.603301 0.000000 0.000000 0.000000 25.573457 -1.665347 -1.224719 57.887097 10.107451 -3.642251 7.863317 28.108161 3.514559 0.000000 0.000000 0.000000 
0.000072 0.951653 -0.000349 0.124925 -5.700424 2.256069 5.427833 0.049653 1.550448 -3.313554 0.421441 -3.800723 6.549347 14.841956 14.754397 0.000000 0.000000 0.000000 -5.745371 0.245839 -0.007471 3.305019 -0.329881 -2.790167 -4.502382 -14.010144 12.305336 0.000000 0.000000 0.000000 7.192447 -0.394812 2.913331 -6.421024 2.156044 -20.726572 -2.603993 7.725065 28.089741 10.242527 -3.215631 -28.977914 0.000000 0.000000 0.000000 -18.884112 -9.838050 3.312729 -51.389890 -9.649172 -4.300859 -5.715860 -28.445714 2.678276 0.000000 0.000000 0.000000 25.597388 -1.689563 -1.243004 57.910027 10.313007 -3.542399 7.879189 28.038885 3.508080 0.000000 0.000000 0.000000 
0.000091 0.951283 -0.000541 0.106041 -5.704246 2.151447 5.429505 0.058891 1.705261 -3.258502 0.417445 -3.907744 6.693983 15.076586 14.993691 0.000000 0.000000 0.000000 -5.727941 0.246736 -0.075964 3.196910 -0.322159 -2.704795 -4.478500 -13.956426 12.229299 0.000000 0.000000 0.000000 7.218052 -0.380857 2.793519 -6.277127 2.118900 -20.658731 -2.619124 7.764739 28.013835 10.129299 -3.160713 -28.869060 0.000000 0.000000 0.000000 -18.773493 -9.871422 3.317914 -51.464487 -9.887950 -4.198544 -5.815305 -28.123468 2.665870 0.000000 0.000000 0.000000 25.624264 -1.747576 -1.270276 57.773118 10.361125 -3.515791 7.878004 28.035183 3.507292 0.000000 0.000000 0.000000 
0.000075 0.950987 -0.000702 0.103797 -5.575879 2.065362 5.388991 0.064825 1.823302 -3.331378 0.423950 -4.025255 6.807171 15.241064 14.594033 0.000000 0.000000 0.000000 -5.677585 0.243624 -0.121852 3.060845 -0.313455 -2.624401 -4.363345 -13.684640 11.925900 0.000000 0.000000 0.000000 7.257413 -0.362945 2.621924 -6.189440 2.101420 -20.522680 -2.702485 7.653307 27.880733 10.081756 -3.132938 -28.855322 0.000000 0.000000 0.000000 -18.527395 -9.926077 3.348930 -51.669027 -10.145632 -4.091132 -5.961329 -27.733445 2.660719 0.000000 0.000000 0.000000 25.621402 -1.942027 -1.406035 57.747423 10.224859 -3.559416 8.082134 28.132485 3.570537 0.000000 0.000000 0.000000 
0.000046 0.950906 -0.000817 0.096773 -5.414925 2.047109 5.378633 0.072338 2.008863 -3.338713 0.425237 -4.279847 6.830457 15.294315 14.620436 0.000000 0.000000 0.000000 -5.679812 0.241142 -0.118743 3.007430 -0.310297 -2.552593 -4.393212 -13.704806 11.825546 0.000000 0.000000 0.000000 7.267790 -0.347552 2.467484 -6.053190 2.067457 -20.494596 -2.792621 7.583484 27.796393 10.124846 -3.151550 -28.844003 0.000000 0.000000 0.000000 -18.402763 -10.143699 3.452606 -51.700842 -10.334162 -4.004344 -5.989991 -27.451736 2.632971 0.000000 0.000000 0.000000 25.763003 -2.006443 -1.444886 57.671618 10.130591 -3.601743 8.038816 28.176784 3.568259 0.000000 0.000000 0.000000 
0.000076 0.951069 -0.000871 0.103897 -5.091606 2.029018 5.400161 0.075638 2.170407 -3.319925 0.423445 -4.577942 6.801879 15.286771 14.704489 0.000000 0.000000 0.000000 -5.640358 0.232492 -0.071362 2.895045 -0.304208 -2.481593 -4.424488 -13.705710 11.680207 0.000000 0.000000 0.000000 7.219978 -0.321224 2.216001 -5.810222 2.010531 -20.333181 -2.898914 7.483073 27.546417 10.102065 -3.096035 -28.926538 0.000000 0.000000 0.000000 -18.193482 -10.158479 3.419535 -51.842646 -10.509931 -3.907191 -6.302508 -27.214698 2.673965 0.000000 0.000000 0.000000 25.700854 -2.368050 -1.642026 57.825567 9.842343 -3.712450 8.266519 28.099967 3.619599 0.000000 0.000000 0.000000 
